<svg xmlns="http://www.w3.org/2000/svg" viewBox="0 0 500 500">
  <style>
    .st0{fill:#4682B4;}
    .st1{fill:#87CEEB;}
    .st2{fill:#FFFFFF;}
    .st3{fill:#F2F2F2;}
    .st4{fill:#E6E6E6;}
    .st5{fill:#999999;}
  </style>
  <g id="background">
    <circle class="st3" cx="250" cy="250" r="250"/>
  </g>
  <g id="page">
    <path class="st2" d="M320,130H130c-5.5,0-10,4.5-10,10V360c0,5.5,4.5,10,10,10H320c5.5,0,10-4.5,10-10V140C330,134.5,325.5,130,320,130z"/>
    <rect x="145" y="160" class="st4" width="160" height="20"/>
    <rect x="145" y="190" class="st4" width="120" height="10"/>
    <rect x="145" y="210" class="st4" width="100" height="10"/>
  </g>
  <g id="magnifying_glass">
    <circle class="st1" cx="280" cy="280" r="70"/>
    <circle class="st2" cx="280" cy="280" r="60"/>
    <rect x="334" y="264" transform="matrix(0.7071 0.7071 -0.7071 0.7071 315.6539 -151.6)" class="st0" width="20" height="100"/>
    <circle class="st0" cx="280" cy="280" r="40"/>
    <circle class="st2" cx="280" cy="280" r="30"/>
    <circle class="st1" cx="280" cy="280" r="20"/>
  </g>
  <g id="numbers">
    <path class="st0" d="M160,300h-20v-90h-20v-20h40V300z"/>
    <path class="st0" d="M210,300c-22.1,0-40-17.9-40-40v-30c0-22.1,17.9-40,40-40s40,17.9,40,40v30C250,282.1,232.1,300,210,300z
       M210,210c-11,0-20,9-20,20v30c0,11,9,20,20,20s20-9,20-20v-30C230,219,221,210,210,210z"/>
    <path class="st0" d="M320,300h-60v-20h40v-30h-20v-20h20v-20h-40v-20h60V300z"/>
  </g>
  <g id="shadow">
    <ellipse class="st5" cx="250" cy="400" rx="100" ry="10"/>
  </g>
</svg>