<svg xmlns="http://www.w3.org/2000/svg" viewBox="0 0 500 500">
  <style>
    .st0{fill:#4682B4;}
    .st1{fill:#87CEEB;}
    .st2{fill:#FFFFFF;}
    .st3{fill:#F2F2F2;}
    .st4{fill:#E6E6E6;}
    .st5{fill:#999999;}
    .st6{fill:#FF6B6B;}
  </style>
  <g id="background">
    <circle class="st3" cx="250" cy="250" r="250"/>
  </g>
  <g id="server">
    <rect x="150" y="150" class="st2" width="200" height="180" rx="10" ry="10"/>
    <rect x="170" y="170" class="st4" width="160" height="20"/>
    <rect x="170" y="200" class="st4" width="160" height="20"/>
    <rect x="170" y="230" class="st4" width="160" height="20"/>
    <rect x="170" y="260" class="st4" width="160" height="20"/>
    <rect x="170" y="290" class="st4" width="50" height="20"/>
    <circle class="st0" cx="275" cy="300" r="10"/>
    <circle class="st1" cx="305" cy="300" r="10"/>
  </g>
  <g id="error">
    <circle class="st6" cx="350" cy="150" r="40"/>
    <rect x="346" y="130" class="st2" width="8" height="30"/>
    <circle class="st2" cx="350" cy="170" r="4"/>
  </g>
  <g id="numbers">
    <path class="st0" d="M100,350l30-70h20l30,70h-20l-5-15h-30l-5,15H100z M135,320h20l-10-25L135,320z"/>
    <path class="st0" d="M210,350c-22.1,0-40-17.9-40-40v-30c0-22.1,17.9-40,40-40s40,17.9,40,40v30C250,332.1,232.1,350,210,350z
       M210,260c-11,0-20,9-20,20v30c0,11,9,20,20,20s20-9,20-20v-30C230,269,221,260,210,260z"/>
    <path class="st0" d="M320,350c-22.1,0-40-17.9-40-40v-30c0-22.1,17.9-40,40-40s40,17.9,40,40v30C360,332.1,342.1,350,320,350z
       M320,260c-11,0-20,9-20,20v30c0,11,9,20,20,20s20-9,20-20v-30C340,269,331,260,320,260z"/>
  </g>
  <g id="gears">
    <circle class="st0" cx="400" cy="230" r="30"/>
    <circle class="st2" cx="400" cy="230" r="15"/>
    <rect x="397" y="190" class="st0" width="6" height="20"/>
    <rect x="397" y="250" class="st0" width="6" height="20"/>
    <rect x="397" y="230" transform="matrix(4.489659e-11 -1 1 4.489659e-11 170 630)" class="st0" width="6" height="20"/>
    <rect x="397" y="230" transform="matrix(-1 -4.489659e-11 4.489659e-11 -1 800 480)" class="st0" width="6" height="20"/>
    <circle class="st1" cx="100" cy="250" r="20"/>
    <circle class="st2" cx="100" cy="250" r="10"/>
    <rect x="98" y="220" class="st1" width="4" height="15"/>
    <rect x="98" y="265" class="st1" width="4" height="15"/>
    <rect x="98" y="250" transform="matrix(4.489659e-11 -1 1 4.489659e-11 -150 350)" class="st1" width="4" height="15"/>
    <rect x="98" y="250" transform="matrix(-1 -4.489659e-11 4.489659e-11 -1 200 515)" class="st1" width="4" height="15"/>
  </g>
  <g id="shadow">
    <ellipse class="st5" cx="250" cy="400" rx="100" ry="10"/>
  </g>
</svg>